<?xml version="1.0" standalone="no"?>
<!DOCTYPE svg PUBLIC "-//W3C//DTD SVG 20010904//EN"
 "http://www.w3.org/TR/2001/REC-SVG-20010904/DTD/svg10.dtd">
<svg version="1.0" xmlns="http://www.w3.org/2000/svg"
 width="600.000000pt" height="600.000000pt" viewBox="0 0 600.000000 600.000000"
 preserveAspectRatio="xMidYMid meet">
<metadata>
Created by potrace 1.11, written by Peter Selinger 2001-2013
</metadata>
<g transform="translate(0.000000,600.000000) scale(0.100000,-0.100000)"
fill="#000000" stroke="none">
<path d="M3238 5834 c-2 -2 -20 -6 -39 -9 -45 -6 -124 -22 -124 -25 0 -1 -8
-3 -17 -5 -40 -8 -179 -75 -248 -120 -71 -46 -280 -244 -280 -264 0 -5 -6 -16
-13 -23 -7 -7 -30 -40 -51 -73 -21 -33 -40 -62 -42 -64 -2 -2 -24 11 -50 28
-26 17 -53 31 -61 31 -7 0 -13 5 -13 10 0 6 -9 10 -19 10 -11 0 -21 3 -23 8
-8 17 -180 66 -268 76 -145 16 -226 8 -355 -35 -146 -49 -258 -120 -370 -233
-153 -155 -242 -335 -262 -531 -3 -33 -7 -61 -8 -63 -1 -1 -22 2 -46 7 -69 16
-284 7 -354 -13 -201 -60 -372 -206 -487 -416 -20 -36 -41 -83 -48 -105 -7
-22 -16 -45 -20 -50 -5 -6 -11 -26 -13 -45 -3 -19 -6 -35 -7 -35 -14 0 -21
-251 -8 -307 5 -24 11 -52 14 -62 24 -119 115 -277 224 -387 86 -87 154 -139
269 -207 l96 -56 335 -1 c267 0 342 -3 370 -15 19 -7 37 -16 40 -19 3 -3 16
-12 30 -20 14 -8 79 -46 145 -84 66 -39 134 -78 150 -87 17 -9 54 -31 83 -49
29 -17 55 -31 58 -31 2 0 23 -12 47 -27 23 -15 51 -33 62 -39 22 -12 42 -24
178 -103 49 -28 93 -51 98 -51 5 0 9 -4 9 -10 0 -5 4 -10 10 -10 5 0 38 -17
72 -38 35 -21 70 -41 78 -45 8 -4 38 -21 65 -37 28 -16 59 -34 70 -40 11 -6
34 -19 50 -30 17 -11 37 -23 45 -26 22 -10 134 -78 140 -85 3 -3 17 -9 33 -13
15 -3 27 -11 27 -16 0 -6 7 -10 15 -10 8 0 15 -4 15 -10 0 -5 4 -10 9 -10 5 0
48 -22 96 -50 48 -27 91 -50 96 -50 5 0 9 -4 9 -10 0 -5 5 -10 10 -10 6 0 27
-11 48 -23 30 -20 176 -104 337 -197 17 -10 145 -84 285 -165 140 -81 269
-156 287 -166 17 -10 50 -29 72 -43 22 -15 43 -26 46 -26 4 0 123 -69 155 -91
8 -5 27 -15 43 -22 15 -6 27 -15 27 -19 0 -4 6 -8 14 -8 7 0 25 -9 40 -21 14
-11 26 -17 26 -12 0 4 4 3 8 -3 4 -6 25 -21 47 -33 22 -12 47 -26 55 -31 8 -5
53 -32 100 -59 78 -44 456 -264 575 -333 28 -16 58 -32 68 -35 9 -3 17 -9 17
-14 0 -5 4 -9 9 -9 6 0 87 -45 182 -101 95 -55 191 -111 213 -123 23 -13 88
-51 146 -85 58 -33 109 -61 114 -61 6 0 -15 26 -46 58 -78 79 -151 156 -303
317 -71 76 -155 164 -185 195 -30 32 -88 93 -129 136 -41 44 -142 151 -225
238 -83 87 -167 175 -186 196 -19 20 -82 86 -139 146 -182 192 -273 288 -305
323 l-31 34 26 -6 c14 -4 48 -9 75 -12 27 -3 56 -8 64 -10 8 -2 41 -7 73 -10
32 -4 68 -8 80 -11 28 -6 77 -13 202 -29 22 -3 51 -8 65 -10 14 -3 45 -7 70
-10 25 -3 59 -8 75 -11 34 -6 31 -4 -204 216 -62 58 -141 132 -176 165 -72 69
-287 270 -327 307 -15 13 -94 87 -175 164 -261 246 -278 262 -305 288 -16 14
-28 26 -28 28 0 2 253 4 563 4 309 1 573 4 586 7 56 14 100 32 161 65 82 45
80 43 165 127 89 88 158 206 181 314 16 78 19 106 18 216 0 82 -6 139 -18 180
-9 33 -18 67 -21 76 -11 49 -84 165 -137 220 -146 150 -346 217 -578 194 -23
-2 -42 3 -55 15 -35 31 -125 90 -125 83 0 -5 -4 -3 -8 2 -7 10 -75 44 -102 51
-8 2 -44 11 -78 21 -61 15 -63 17 -58 42 4 14 9 37 11 51 3 14 8 39 12 55 19
92 8 227 -32 379 -29 113 -144 335 -230 444 -38 50 -190 197 -236 230 -111 80
-289 156 -414 177 -46 8 -301 16 -307 9z"/>
</g>
</svg>
